<?xml version="1.0" encoding="UTF-8"?>
<svg id="_圖層_2" data-name="圖層 2" xmlns="http://www.w3.org/2000/svg" viewBox="0 0 128.41 107.76">
  <defs>
    <style>
      .cls-1 {
        fill: #eeeeef;
        stroke-width: 0px;
      }
    </style>
  </defs>
  <g id="_圖層_1-2" data-name="圖層 1">
    <path class="cls-1" d="M58.54,31.75H15.41l3.41-12.72h17.57c-.46-4.17-1.61-9.12-2.58-13.06L47.56,0c1.63,4.84,3.21,11.15,3.75,15.43l-7.5,3.6h18.13l-3.41,12.72ZM107.1,75.78c-5.13,6.53-11.39,11.82-18.28,16.1,5.16,1.35,11.22,2.25,17.86,2.7-3.97,3.04-9.51,9.01-12.33,12.84-9.46-1.24-17.42-3.49-23.72-6.87-9.24,3.38-19.3,5.63-29.74,7.21-.25-3.26-1.32-8.11-2.7-11.37l-1.39,5.18H14.49l-1.21,4.5H0l10.59-39.52h35.58l-7.6,28.38c7.16-.68,14.14-1.91,20.75-3.49-1.87-2.25-3.46-4.73-4.65-7.43l4.98-1.35h-12.05l2.87-10.7h45.83l2.63-.56,8.17,4.39ZM76.28,17.23h-13.96l3.2-11.94h13.96l1.24-4.62h14.19l-5.7,21.28h-11.49l4.14,1.35c-.78,1.24-1.53,2.36-2.43,3.6h7.32c-.06-1.46-.15-2.82-.15-4.05l9.72-2.25L101.66.68h14.41l-1.18,4.39h13.51l-3.2,11.94h-13.51l-1.33,4.95h-8.11c.25,1.58.22,3.38.36,4.95h17.12l-2.53,9.46h-17.79l-.72,2.7h14.75l-2.05,7.66h-14.75l-.72,2.7h14.75l-2.05,7.66h-14.75l-.78,2.93h19.93l-2.44,9.12h-43.13l-.33,1.24h-13.29l5.52-20.61c-1.2,1.13-2.49,2.14-3.63,3.04-.61-2.36-2.32-7.32-3.81-10.59l-1.36,5.07H16.2l3.26-12.16h34.34l-1.15,4.28c6.45-5.18,12.92-12.5,17.5-19.93l5.07,1.69,1.06-3.94ZM15.3,50.67h34.34l-3.26,12.16H12.04l3.26-12.16ZM29.22,79.39h-8.78l-2.47,9.23h8.78l2.47-9.23ZM86.01,36.37h-9.8l-.72,2.7h9.8l.72-2.7ZM83.24,46.73h-9.8l-.72,2.7h9.8l.72-2.7ZM80.46,57.09h-9.8l-.78,2.93h9.8l.78-2.93ZM70.69,82.65c1.21,1.35,2.6,2.48,4.21,3.6,2.55-1.13,4.99-2.25,7.16-3.6h-11.37Z"/>
  </g>
</svg>